<svg width="1354" height="91" viewBox="0 0 1354 91" fill="none" xmlns="http://www.w3.org/2000/svg">
<path d="M42.0107 90.25C35.9274 90.25 30.3441 89.1667 25.2607 87C20.1774 84.8333 15.7607 81.75 12.0107 77.75C8.26074 73.6667 5.34408 68.875 3.26074 63.375C1.26074 57.875 0.260742 51.8333 0.260742 45.25C0.260742 39 1.34408 33.2083 3.51074 27.875C5.76074 22.4583 8.84408 17.7083 12.7607 13.625C16.6774 9.54166 21.2191 6.375 26.3857 4.125C31.5524 1.875 37.1357 0.749996 43.1357 0.749996C47.3857 0.749996 51.5107 1.41666 55.5107 2.74999C59.5941 4 63.2607 5.79167 66.5107 8.125C69.8441 10.375 72.5524 12.9583 74.6357 15.875L65.6357 25.25C63.2191 22.8333 60.7607 20.8333 58.2607 19.25C55.8441 17.5833 53.3441 16.3333 50.7607 15.5C48.2607 14.6667 45.7191 14.25 43.1357 14.25C39.0524 14.25 35.2191 15.0417 31.6357 16.625C28.1357 18.125 25.0524 20.25 22.3857 23C19.8024 25.75 17.7607 29.0417 16.2607 32.875C14.7607 36.625 14.0107 40.75 14.0107 45.25C14.0107 50 14.7191 54.3333 16.1357 58.25C17.6357 62.0833 19.7191 65.375 22.3857 68.125C25.0524 70.875 28.2191 73 31.8857 74.5C35.6357 75.9167 39.7607 76.625 44.2607 76.625C47.0107 76.625 49.7191 76.25 52.3857 75.5C55.0524 74.75 57.5524 73.6667 59.8857 72.25C62.2191 70.8333 64.3441 69.1667 66.2607 67.25L73.0107 78.25C71.0941 80.5 68.4691 82.5417 65.1357 84.375C61.8857 86.2083 58.2191 87.6667 54.1357 88.75C50.1357 89.75 46.0941 90.25 42.0107 90.25ZM148.475 89V1.49999H161.975V89H148.475ZM91.3496 89V1.49999H104.85V89H91.3496ZM97.2246 51.875V38.875H154.475V51.875H97.2246ZM186.442 89V1.49999H223.692C228.692 1.49999 233.276 2.75 237.442 5.25C241.692 7.66666 245.067 11 247.567 15.25C250.067 19.4167 251.317 24.125 251.317 29.375C251.317 34.125 250.067 38.5417 247.567 42.625C245.067 46.7083 241.734 50 237.567 52.5C233.401 54.9167 228.776 56.125 223.692 56.125H199.942V89H186.442ZM238.442 89L216.192 49.5L230.067 46.375L254.817 89.125L238.442 89ZM199.942 43.125H224.942C227.359 43.125 229.526 42.5417 231.442 41.375C233.359 40.125 234.859 38.4583 235.942 36.375C237.026 34.2083 237.567 31.8333 237.567 29.25C237.567 26.3333 236.859 23.7917 235.442 21.625C234.109 19.375 232.192 17.625 229.692 16.375C227.276 15.125 224.526 14.5 221.442 14.5H199.942V43.125ZM270.106 89V76.5H284.231V14H270.106V1.49999H311.856V14H297.731V76.5H311.856V89H270.106ZM360.049 90.25C355.299 90.25 350.882 89.625 346.799 88.375C342.799 87.125 339.132 85.25 335.799 82.75C332.549 80.1667 329.632 77 327.049 73.25L336.299 62.625C340.382 68.4583 344.299 72.5 348.049 74.75C351.799 77 356.257 78.125 361.424 78.125C364.59 78.125 367.465 77.625 370.049 76.625C372.632 75.625 374.674 74.25 376.174 72.5C377.674 70.75 378.424 68.75 378.424 66.5C378.424 65 378.174 63.5833 377.674 62.25C377.174 60.9167 376.382 59.7083 375.299 58.625C374.299 57.5417 372.965 56.5417 371.299 55.625C369.715 54.7083 367.84 53.9167 365.674 53.25C363.507 52.5 361.007 51.875 358.174 51.375C353.674 50.4583 349.757 49.25 346.424 47.75C343.09 46.25 340.299 44.375 338.049 42.125C335.799 39.875 334.132 37.3333 333.049 34.5C331.965 31.5833 331.424 28.3333 331.424 24.75C331.424 21.25 332.174 18 333.674 15C335.257 12 337.382 9.41666 340.049 7.24999C342.799 4.99999 346.007 3.29166 349.674 2.12499C353.34 0.874995 357.299 0.249995 361.549 0.249995C366.049 0.249995 370.174 0.833329 373.924 2C377.674 3.16666 381.007 4.91666 383.924 7.24999C386.84 9.5 389.257 12.2917 391.174 15.625L381.674 25C380.007 22.25 378.132 19.9583 376.049 18.125C373.965 16.2083 371.674 14.7917 369.174 13.875C366.674 12.875 364.007 12.375 361.174 12.375C357.924 12.375 355.09 12.875 352.674 13.875C350.257 14.875 348.34 16.2917 346.924 18.125C345.59 19.875 344.924 21.9583 344.924 24.375C344.924 26.125 345.257 27.75 345.924 29.25C346.59 30.6667 347.59 31.9583 348.924 33.125C350.34 34.2083 352.215 35.2083 354.549 36.125C356.882 36.9583 359.674 37.7083 362.924 38.375C367.507 39.375 371.59 40.6667 375.174 42.25C378.757 43.75 381.799 45.5417 384.299 47.625C386.799 49.7083 388.674 52.0417 389.924 54.625C391.257 57.2083 391.924 60 391.924 63C391.924 68.5833 390.632 73.4167 388.049 77.5C385.465 81.5833 381.799 84.75 377.049 87C372.299 89.1667 366.632 90.25 360.049 90.25ZM427.677 89V14.5H403.177V1.49999H466.427V14.5H441.177V89H427.677ZM479.823 89V76.5H493.948V14H479.823V1.49999H521.573V14H507.448V76.5H521.573V89H479.823ZM533.641 89L567.516 1.49999H581.266L614.891 89H600.516L580.516 36.25C580.266 35.6667 579.766 34.25 579.016 32C578.349 29.75 577.557 27.25 576.641 24.5C575.724 21.75 574.891 19.25 574.141 17C573.391 14.6667 572.891 13.1667 572.641 12.5L575.516 12.375C575.016 13.7917 574.391 15.5833 573.641 17.75C572.974 19.9167 572.224 22.2083 571.391 24.625C570.641 27.0417 569.891 29.3333 569.141 31.5C568.391 33.5833 567.766 35.3333 567.266 36.75L547.391 89H533.641ZM548.641 67.25L553.641 54.25H593.391L599.141 67.25H548.641ZM630.29 89V1.49999H642.415L695.915 73.125L693.915 74.25C693.582 72.1667 693.29 69.9167 693.04 67.5C692.79 65 692.54 62.375 692.29 59.625C692.123 56.7917 691.957 53.8333 691.79 50.75C691.707 47.5833 691.623 44.2917 691.54 40.875C691.457 37.4583 691.415 33.9167 691.415 30.25V1.49999H704.915V89H692.54L639.915 20L641.29 18.25C641.707 23.3333 642.04 27.6667 642.29 31.25C642.623 34.75 642.873 37.75 643.04 40.25C643.29 42.6667 643.457 44.6667 643.54 46.25C643.623 47.75 643.665 49 643.665 50C643.748 51 643.79 51.875 643.79 52.625V89H630.29ZM764.445 89V1.49999H777.945V76H818.945V89H764.445ZM839.274 89V1.49999H894.399V14.5H852.774V76H894.399V89H839.274ZM845.399 50.625V37.625H887.524V50.625H845.399ZM916.057 89V1.49999H950.307C956.557 1.49999 962.182 2.54166 967.182 4.625C972.265 6.70833 976.598 9.70833 980.182 13.625C983.765 17.5417 986.515 22.1667 988.432 27.5C990.348 32.8333 991.307 38.75 991.307 45.25C991.307 51.75 990.348 57.7083 988.432 63.125C986.515 68.4583 983.765 73.0833 980.182 77C976.682 80.8333 972.39 83.7917 967.307 85.875C962.223 87.9583 956.557 89 950.307 89H916.057ZM929.557 77.375L929.182 76H949.682C954.098 76 958.015 75.2917 961.432 73.875C964.932 72.4583 967.848 70.4583 970.182 67.875C972.598 65.2083 974.432 61.9583 975.682 58.125C976.932 54.2917 977.557 50 977.557 45.25C977.557 40.5 976.932 36.25 975.682 32.5C974.432 28.6667 972.598 25.4167 970.182 22.75C967.765 20.0833 964.848 18.0417 961.432 16.625C958.015 15.2083 954.098 14.5 949.682 14.5H928.807L929.557 13.375V77.375ZM1048.69 90.25C1042.35 90.25 1036.44 89.125 1030.94 86.875C1025.44 84.5417 1020.6 81.3333 1016.44 77.25C1012.27 73.1667 1009.02 68.4167 1006.69 63C1004.44 57.5 1003.31 51.5833 1003.31 45.25C1003.31 39 1004.44 33.1667 1006.69 27.75C1009.02 22.3333 1012.23 17.625 1016.31 13.625C1020.48 9.54166 1025.31 6.375 1030.81 4.125C1036.31 1.875 1042.23 0.749996 1048.56 0.749996C1052.98 0.749996 1057.27 1.375 1061.44 2.62499C1065.69 3.87499 1069.52 5.62499 1072.94 7.87499C1076.35 10.125 1079.15 12.7083 1081.31 15.625L1072.56 24.75C1070.06 22.3333 1067.48 20.3333 1064.81 18.75C1062.23 17.1667 1059.56 15.9583 1056.81 15.125C1054.06 14.2917 1051.31 13.875 1048.56 13.875C1044.06 13.875 1039.9 14.6667 1036.06 16.25C1032.31 17.8333 1028.98 20.0417 1026.06 22.875C1023.23 25.7083 1021.02 29.0417 1019.44 32.875C1017.85 36.625 1017.06 40.75 1017.06 45.25C1017.06 49.5833 1017.9 53.7083 1019.56 57.625C1021.23 61.4583 1023.52 64.8333 1026.44 67.75C1029.44 70.6667 1032.85 72.9583 1036.69 74.625C1040.6 76.2917 1044.73 77.125 1049.06 77.125C1052.31 77.125 1055.4 76.6667 1058.31 75.75C1061.23 74.75 1063.81 73.375 1066.06 71.625C1068.31 69.875 1070.06 67.875 1071.31 65.625C1072.56 63.2917 1073.19 60.8333 1073.19 58.25V55.75L1075.06 57.5H1048.31V44.125H1087.06C1087.23 45.0417 1087.35 45.9583 1087.44 46.875C1087.52 47.7083 1087.56 48.5417 1087.56 49.375C1087.65 50.125 1087.69 50.875 1087.69 51.625C1087.69 57.375 1086.69 62.625 1084.69 67.375C1082.69 72.0417 1079.9 76.0833 1076.31 79.5C1072.81 82.9167 1068.69 85.5833 1063.94 87.5C1059.27 89.3333 1054.19 90.25 1048.69 90.25ZM1094.92 89L1128.79 1.49999H1142.54L1176.17 89H1161.79L1141.79 36.25C1141.54 35.6667 1141.04 34.25 1140.29 32C1139.63 29.75 1138.84 27.25 1137.92 24.5C1137 21.75 1136.17 19.25 1135.42 17C1134.67 14.6667 1134.17 13.1667 1133.92 12.5L1136.79 12.375C1136.29 13.7917 1135.67 15.5833 1134.92 17.75C1134.25 19.9167 1133.5 22.2083 1132.67 24.625C1131.92 27.0417 1131.17 29.3333 1130.42 31.5C1129.67 33.5833 1129.04 35.3333 1128.54 36.75L1108.67 89H1094.92ZM1109.92 67.25L1114.92 54.25H1154.67L1160.42 67.25H1109.92ZM1191.57 89V1.49999H1228.82C1233.82 1.49999 1238.4 2.75 1242.57 5.25C1246.82 7.66666 1250.19 11 1252.69 15.25C1255.19 19.4167 1256.44 24.125 1256.44 29.375C1256.44 34.125 1255.19 38.5417 1252.69 42.625C1250.19 46.7083 1246.86 50 1242.69 52.5C1238.53 54.9167 1233.9 56.125 1228.82 56.125H1205.07V89H1191.57ZM1243.57 89L1221.32 49.5L1235.19 46.375L1259.94 89.125L1243.57 89ZM1205.07 43.125H1230.07C1232.49 43.125 1234.65 42.5417 1236.57 41.375C1238.49 40.125 1239.99 38.4583 1241.07 36.375C1242.15 34.2083 1242.69 31.8333 1242.69 29.25C1242.69 26.3333 1241.99 23.7917 1240.57 21.625C1239.24 19.375 1237.32 17.625 1234.82 16.375C1232.4 15.125 1229.65 14.5 1226.57 14.5H1205.07V43.125ZM1278.48 89V1.49999H1312.73C1318.98 1.49999 1324.61 2.54166 1329.61 4.625C1334.69 6.70833 1339.03 9.70833 1342.61 13.625C1346.19 17.5417 1348.94 22.1667 1350.86 27.5C1352.78 32.8333 1353.73 38.75 1353.73 45.25C1353.73 51.75 1352.78 57.7083 1350.86 63.125C1348.94 68.4583 1346.19 73.0833 1342.61 77C1339.11 80.8333 1334.82 83.7917 1329.73 85.875C1324.65 87.9583 1318.98 89 1312.73 89H1278.48ZM1291.98 77.375L1291.61 76H1312.11C1316.53 76 1320.44 75.2917 1323.86 73.875C1327.36 72.4583 1330.28 70.4583 1332.61 67.875C1335.03 65.2083 1336.86 61.9583 1338.11 58.125C1339.36 54.2917 1339.98 50 1339.98 45.25C1339.98 40.5 1339.36 36.25 1338.11 32.5C1336.86 28.6667 1335.03 25.4167 1332.61 22.75C1330.19 20.0833 1327.28 18.0417 1323.86 16.625C1320.44 15.2083 1316.53 14.5 1312.11 14.5H1291.23L1291.98 13.375V77.375Z" fill="black"/>
</svg>
